<svg width="90" height="90" viewBox="0 0 90 90" fill="none" xmlns="http://www.w3.org/2000/svg">
<g opacity="0.5">
<path d="M45 61.875L45 36.5625M45 36.5625L56.25 47.8125M45 36.5625L33.75 47.8125M25.3125 73.125C15.9927 73.125 8.4375 65.5698 8.4375 56.25C8.4375 48.7764 13.2958 42.4376 20.0265 40.2195C19.8039 39.0345 19.6875 37.8121 19.6875 36.5625C19.6875 25.6894 28.5019 16.875 39.375 16.875C48.4921 16.875 56.1618 23.0723 58.4013 31.484C59.4953 31.1292 60.6627 30.9375 61.875 30.9375C68.0882 30.9375 73.125 35.9743 73.125 42.1875C73.125 43.493 72.9026 44.7466 72.4937 45.9124C77.795 47.9267 81.5625 53.0546 81.5625 59.0625C81.5625 66.829 75.2665 73.125 67.5 73.125H25.3125Z" stroke="#151312" stroke-width="4" stroke-linecap="round" stroke-linejoin="round"/>
</g>
</svg>
