<svg width="20" height="20" viewBox="0 0 20 20" fill="none" xmlns="http://www.w3.org/2000/svg">
<path d="M10 9.00003C10.3296 9.00003 10.6519 8.90228 10.926 8.71915C11.2 8.53601 11.4137 8.27572 11.5398 7.97117C11.6659 7.66663 11.699 7.33152 11.6346 7.00822C11.5703 6.68491 11.4116 6.38794 11.1785 6.15486C10.9454 5.92177 10.6485 5.76303 10.3252 5.69872C10.0018 5.63442 9.66674 5.66742 9.3622 5.79357C9.05765 5.91971 8.79735 6.13333 8.61422 6.40742C8.43108 6.6815 8.33333 7.00373 8.33333 7.33337C8.33333 7.77539 8.50893 8.19932 8.82149 8.51188C9.13405 8.82444 9.55797 9.00003 10 9.00003ZM9.40833 14.7584C9.4858 14.8365 9.57797 14.8985 9.67952 14.9408C9.78107 14.9831 9.88999 15.0049 10 15.0049C10.11 15.0049 10.2189 14.9831 10.3205 14.9408C10.422 14.8985 10.5142 14.8365 10.5917 14.7584L14 11.3417C14.7916 10.5505 15.3308 9.54227 15.5494 8.44458C15.768 7.34689 15.6561 6.20904 15.2279 5.17494C14.7997 4.14084 14.0745 3.25696 13.1439 2.63508C12.2133 2.0132 11.1192 1.68127 10 1.68127C8.88076 1.68127 7.78666 2.0132 6.85609 2.63508C5.92552 3.25696 5.20028 4.14084 4.7721 5.17494C4.34392 6.20904 4.23204 7.34689 4.45061 8.44458C4.66917 9.54227 5.20837 10.5505 6 11.3417L9.40833 14.7584ZM6.025 6.95003C6.08194 6.35588 6.27085 5.78194 6.57794 5.27013C6.88503 4.75831 7.30254 4.32154 7.8 3.9917C8.4535 3.56261 9.21822 3.334 10 3.334C10.7818 3.334 11.5465 3.56261 12.2 3.9917C12.6941 4.32041 13.1093 4.75453 13.4156 5.26285C13.7219 5.77117 13.9118 6.34106 13.9716 6.93152C14.0313 7.52199 13.9595 8.11836 13.7612 8.67775C13.563 9.23714 13.2432 9.74564 12.825 10.1667L10 12.9917L7.175 10.1667C6.75627 9.74973 6.43577 9.24464 6.23684 8.6882C6.0379 8.13176 5.96554 7.53797 6.025 6.95003ZM15.8333 16.6667H4.16667C3.94565 16.6667 3.73369 16.7545 3.57741 16.9108C3.42113 17.0671 3.33333 17.279 3.33333 17.5C3.33333 17.721 3.42113 17.933 3.57741 18.0893C3.73369 18.2456 3.94565 18.3334 4.16667 18.3334H15.8333C16.0543 18.3334 16.2663 18.2456 16.4226 18.0893C16.5789 17.933 16.6667 17.721 16.6667 17.5C16.6667 17.279 16.5789 17.0671 16.4226 16.9108C16.2663 16.7545 16.0543 16.6667 15.8333 16.6667Z" fill="#0DA2B8"/>
</svg>
