<svg width="48" height="48" viewBox="0 0 48 48" fill="none" xmlns="http://www.w3.org/2000/svg">
<rect x="1" y="1" width="46" height="46" rx="23" stroke="#0DA2B8" stroke-width="2"/>
<path d="M24.0001 24C27.2217 24 29.8334 21.3883 29.8334 18.1667C29.8334 14.945 27.2217 12.3333 24.0001 12.3333C20.7784 12.3333 18.1667 14.945 18.1667 18.1667C18.1667 21.3883 20.7784 24 24.0001 24Z" fill="#0DA2B8"/>
<path d="M24 26.9167C18.155 26.9167 13.395 30.8367 13.395 35.6667C13.395 35.9933 13.6517 36.25 13.9784 36.25H34.0217C34.3484 36.25 34.605 35.9933 34.605 35.6667C34.605 30.8367 29.845 26.9167 24 26.9167Z" fill="#0DA2B8"/>
</svg>
