<svg width="20" height="20" viewBox="0 0 20 20" fill="none" xmlns="http://www.w3.org/2000/svg">
<path d="M18.8235 0.882355H16.4706C16.1586 0.882355 15.8593 1.0063 15.6387 1.22694C15.4181 1.44757 15.2941 1.74681 15.2941 2.05883C15.2941 2.37084 15.4181 2.67008 15.6387 2.89072C15.8593 3.11135 16.1586 3.2353 16.4706 3.2353H17.6471V17.3529H16.4706C16.1586 17.3529 15.8593 17.4769 15.6387 17.6975C15.4181 17.9182 15.2941 18.2174 15.2941 18.5294C15.2941 18.8414 15.4181 19.1407 15.6387 19.3613C15.8593 19.5819 16.1586 19.7059 16.4706 19.7059H18.8235C19.1355 19.7059 19.4348 19.5819 19.6554 19.3613C19.8761 19.1407 20 18.8414 20 18.5294V2.05883C20 1.74681 19.8761 1.44757 19.6554 1.22694C19.4348 1.0063 19.1355 0.882355 18.8235 0.882355ZM10.3529 4.88236C10.1657 4.63274 9.88703 4.46772 9.57814 4.42359C9.26926 4.37946 8.9555 4.45985 8.70588 4.64706C8.45627 4.83427 8.29125 5.11298 8.24712 5.42186C8.20299 5.73074 8.28338 6.0445 8.47059 6.29412L10.5882 9.11765H1.17647C0.864451 9.11765 0.565211 9.2416 0.34458 9.46223C0.123949 9.68286 0 9.9821 0 10.2941C0 10.6061 0.123949 10.9054 0.34458 11.126C0.565211 11.3466 0.864451 11.4706 1.17647 11.4706H10.6941L8.67059 14.3412C8.58031 14.4676 8.51598 14.6107 8.48129 14.7622C8.44661 14.9136 8.44227 15.0704 8.46852 15.2236C8.49478 15.3767 8.5511 15.5231 8.63424 15.6543C8.71739 15.7856 8.8257 15.8991 8.95294 15.9882C9.15294 16.1279 9.39139 16.2019 9.63529 16.2C9.82194 16.1991 10.0057 16.1539 10.1714 16.068C10.3371 15.982 10.48 15.8579 10.5882 15.7059L13.9059 11C14.0531 10.7985 14.1325 10.5554 14.1325 10.3059C14.1325 10.0563 14.0531 9.81325 13.9059 9.61177L10.3529 4.88236Z" fill="white"/>
</svg>
