<svg width="243" height="39" viewBox="0 0 243 39" fill="none" xmlns="http://www.w3.org/2000/svg">
<path d="M14.5723 29H7.59375V6.92188H0.703125V3.6875H21.4629V6.92188H14.5723V29ZM40.1309 10.4902L36.791 16.0273C36.6504 15.5586 36.4688 15.0312 36.2461 14.4453C36.0234 13.8594 35.748 13.3145 35.4199 12.8105C35.0918 12.2949 34.6992 11.8672 34.2422 11.5273C33.7852 11.1758 33.2578 11 32.6602 11C32.1094 11 31.6289 11.1406 31.2188 11.4219C30.8203 11.7031 30.4805 12.0723 30.1992 12.5293C29.918 12.9746 29.6836 13.4844 29.4961 14.0586C29.3203 14.6211 29.1797 15.1953 29.0742 15.7812C28.9805 16.3555 28.916 16.9121 28.8809 17.4512C28.8457 17.9785 28.8281 18.4355 28.8281 18.8223V29H22.8691V8.69727H25.1543L27.5625 13.4258C27.8906 12.6641 28.2656 11.9668 28.6875 11.334C29.1094 10.6895 29.5957 10.1387 30.1465 9.68164C30.6973 9.21289 31.3184 8.84961 32.0098 8.5918C32.7129 8.33398 33.5039 8.20508 34.3828 8.20508C34.8398 8.20508 35.3496 8.24609 35.9121 8.32812C36.4746 8.39844 37.0254 8.52734 37.5645 8.71484C38.1035 8.89062 38.6016 9.125 39.0586 9.41797C39.5156 9.71094 39.873 10.0684 40.1309 10.4902ZM48.8672 3.79297C48.8672 4.23828 48.7793 4.66016 48.6035 5.05859C48.4395 5.45703 48.2109 5.80273 47.918 6.0957C47.625 6.38867 47.2793 6.62305 46.8809 6.79883C46.4824 6.96289 46.0605 7.04492 45.6152 7.04492C45.1699 7.04492 44.748 6.96289 44.3496 6.79883C43.9629 6.62305 43.623 6.38867 43.3301 6.0957C43.0371 5.80273 42.8027 5.45703 42.627 5.05859C42.4629 4.66016 42.3809 4.23828 42.3809 3.79297C42.3809 3.34766 42.4629 2.93164 42.627 2.54492C42.8027 2.14648 43.0371 1.80078 43.3301 1.50781C43.623 1.21484 43.9629 0.986328 44.3496 0.822266C44.748 0.646484 45.1699 0.558594 45.6152 0.558594C46.0605 0.558594 46.4824 0.646484 46.8809 0.822266C47.2793 0.986328 47.625 1.21484 47.918 1.50781C48.2109 1.80078 48.4395 2.14648 48.6035 2.54492C48.7793 2.93164 48.8672 3.34766 48.8672 3.79297ZM48.6035 29H42.6445V8.71484H48.6035V29ZM75.1816 18.8047C75.1816 20.2812 74.959 21.6641 74.5137 22.9531C74.0684 24.2422 73.4238 25.3672 72.5801 26.3281C71.7363 27.2773 70.7051 28.0273 69.4863 28.5781C68.2676 29.1289 66.8848 29.4043 65.3379 29.4043C64.1543 29.4043 63.0645 29.1758 62.0684 28.7188C61.084 28.25 60.2402 27.5352 59.5371 26.5742V38.3691H53.5957V8.69727H55.8809L58.5176 13.1094C58.7754 12.3711 59.127 11.7031 59.5723 11.1055C60.0293 10.4961 60.5508 9.98047 61.1367 9.55859C61.7344 9.125 62.3848 8.79102 63.0879 8.55664C63.8027 8.32227 64.5527 8.20508 65.3379 8.20508C66.8848 8.20508 68.2676 8.48047 69.4863 9.03125C70.7051 9.58203 71.7363 10.3379 72.5801 11.2988C73.4238 12.248 74.0684 13.3672 74.5137 14.6562C74.959 15.9453 75.1816 17.3281 75.1816 18.8047ZM69.1523 18.8047C69.1523 18.2891 69.123 17.7441 69.0645 17.1699C69.0176 16.584 68.9297 16.0039 68.8008 15.4297C68.6719 14.8555 68.4902 14.3047 68.2559 13.7773C68.0332 13.25 67.7461 12.7871 67.3945 12.3887C67.043 11.9785 66.6152 11.6562 66.1113 11.4219C65.6191 11.1758 65.0449 11.0527 64.3887 11.0527C63.709 11.0527 63.1172 11.1699 62.6133 11.4043C62.1211 11.6387 61.6934 11.9609 61.3301 12.3711C60.9785 12.7695 60.6855 13.2324 60.4512 13.7598C60.2285 14.2754 60.0527 14.8203 59.9238 15.3945C59.7949 15.9688 59.7012 16.5488 59.6426 17.1348C59.5957 17.7207 59.5723 18.2773 59.5723 18.8047C59.5723 19.2734 59.6074 19.7949 59.6777 20.3691C59.748 20.9316 59.8594 21.5 60.0117 22.0742C60.1641 22.6484 60.3633 23.2051 60.6094 23.7441C60.8555 24.2832 61.1543 24.7637 61.5059 25.1855C61.8691 25.6074 62.2852 25.9473 62.7539 26.2051C63.2344 26.4512 63.7793 26.5742 64.3887 26.5742C65.0566 26.5742 65.6367 26.457 66.1289 26.2227C66.6211 25.9766 67.043 25.6543 67.3945 25.2559C67.7461 24.8457 68.0332 24.377 68.2559 23.8496C68.4902 23.3223 68.6719 22.7715 68.8008 22.1973C68.9297 21.623 69.0176 21.043 69.0645 20.457C69.123 19.8711 69.1523 19.3203 69.1523 18.8047ZM96.5742 29H89.5957V3.6875H103.271C104.455 3.6875 105.586 3.8457 106.664 4.16211C107.754 4.47852 108.715 4.95898 109.547 5.60352C110.379 6.23633 111.041 7.03906 111.533 8.01172C112.037 8.97266 112.289 10.1035 112.289 11.4043C112.289 12.2246 112.172 12.998 111.938 13.7246C111.703 14.4395 111.375 15.0957 110.953 15.6934C110.543 16.291 110.057 16.8301 109.494 17.3105C108.932 17.791 108.316 18.1953 107.648 18.5234C106.98 18.8516 106.271 19.1035 105.521 19.2793C104.783 19.4551 104.033 19.543 103.271 19.543H96.5742V29ZM105.223 11.4043C105.223 9.77539 104.807 8.49805 103.975 7.57227C103.154 6.63477 101.912 6.16602 100.248 6.16602H96.5742V17.1523H100.248C101.139 17.1523 101.895 17.0117 102.516 16.7305C103.148 16.4375 103.664 16.0332 104.062 15.5176C104.461 15.002 104.754 14.3984 104.941 13.707C105.129 13.0039 105.223 12.2363 105.223 11.4043ZM135.598 29H129.656V26.5742C128.953 27.5352 128.104 28.25 127.107 28.7188C126.123 29.1758 125.039 29.4043 123.855 29.4043C122.309 29.4043 120.926 29.1289 119.707 28.5781C118.488 28.0273 117.457 27.2773 116.613 26.3281C115.77 25.3672 115.125 24.2422 114.68 22.9531C114.234 21.6641 114.012 20.2812 114.012 18.8047C114.012 17.3281 114.234 15.9453 114.68 14.6562C115.125 13.3672 115.77 12.248 116.613 11.2988C117.457 10.3379 118.488 9.58203 119.707 9.03125C120.926 8.48047 122.309 8.20508 123.855 8.20508C124.641 8.20508 125.385 8.32227 126.088 8.55664C126.803 8.79102 127.453 9.125 128.039 9.55859C128.637 9.98047 129.158 10.4961 129.604 11.1055C130.061 11.7031 130.418 12.3711 130.676 13.1094L133.312 8.69727H135.598V29ZM129.621 18.8047C129.621 18.2773 129.592 17.7207 129.533 17.1348C129.486 16.5488 129.398 15.9688 129.27 15.3945C129.141 14.8203 128.959 14.2754 128.725 13.7598C128.502 13.2324 128.209 12.7695 127.846 12.3711C127.494 11.9609 127.066 11.6387 126.562 11.4043C126.059 11.1699 125.473 11.0527 124.805 11.0527C124.137 11.0527 123.557 11.1758 123.064 11.4219C122.572 11.6562 122.15 11.9785 121.799 12.3887C121.447 12.7871 121.154 13.25 120.92 13.7773C120.697 14.3047 120.521 14.8555 120.393 15.4297C120.264 16.0039 120.17 16.584 120.111 17.1699C120.064 17.7441 120.041 18.2891 120.041 18.8047C120.041 19.3203 120.064 19.8711 120.111 20.457C120.17 21.043 120.264 21.623 120.393 22.1973C120.521 22.7715 120.697 23.3223 120.92 23.8496C121.154 24.377 121.447 24.8457 121.799 25.2559C122.15 25.6543 122.572 25.9766 123.064 26.2227C123.557 26.457 124.137 26.5742 124.805 26.5742C125.414 26.5742 125.953 26.4512 126.422 26.2051C126.902 25.9473 127.318 25.6074 127.67 25.1855C128.033 24.7637 128.338 24.2832 128.584 23.7441C128.83 23.2051 129.029 22.6484 129.182 22.0742C129.334 21.5 129.445 20.9316 129.516 20.3691C129.586 19.7949 129.621 19.2734 129.621 18.8047ZM157.834 10.4902L154.494 16.0273C154.354 15.5586 154.172 15.0312 153.949 14.4453C153.727 13.8594 153.451 13.3145 153.123 12.8105C152.795 12.2949 152.402 11.8672 151.945 11.5273C151.488 11.1758 150.961 11 150.363 11C149.812 11 149.332 11.1406 148.922 11.4219C148.523 11.7031 148.184 12.0723 147.902 12.5293C147.621 12.9746 147.387 13.4844 147.199 14.0586C147.023 14.6211 146.883 15.1953 146.777 15.7812C146.684 16.3555 146.619 16.9121 146.584 17.4512C146.549 17.9785 146.531 18.4355 146.531 18.8223V29H140.572V8.69727H142.857L145.266 13.4258C145.594 12.6641 145.969 11.9668 146.391 11.334C146.812 10.6895 147.299 10.1387 147.85 9.68164C148.4 9.21289 149.021 8.84961 149.713 8.5918C150.416 8.33398 151.207 8.20508 152.086 8.20508C152.543 8.20508 153.053 8.24609 153.615 8.32812C154.178 8.39844 154.729 8.52734 155.268 8.71484C155.807 8.89062 156.305 9.125 156.762 9.41797C157.219 9.71094 157.576 10.0684 157.834 10.4902ZM167.977 29H162.018V11.0527H158.326V8.69727H162.018V1.22656H167.977V8.69727H174.129V11.0527H167.977V29ZM197.648 17.3633C197.648 18.7344 197.479 20.1641 197.139 21.6523C196.811 23.1406 196.348 24.5996 195.75 26.0293C195.152 27.459 194.438 28.8008 193.605 30.0547C192.773 31.3203 191.859 32.4102 190.863 33.3242L188.631 32.1113C188.947 31.5254 189.246 30.8691 189.527 30.1426C189.809 29.416 190.061 28.6484 190.283 27.8398C190.518 27.0195 190.723 26.1758 190.898 25.3086C191.086 24.4414 191.238 23.5859 191.355 22.7422C191.484 21.8867 191.578 21.0605 191.637 20.2637C191.707 19.4551 191.742 18.7051 191.742 18.0137C191.742 17.5566 191.725 17.0703 191.689 16.5547C191.654 16.0273 191.578 15.5059 191.461 14.9902C191.355 14.4629 191.209 13.959 191.021 13.4785C190.834 12.998 190.582 12.5762 190.266 12.2129C189.961 11.8496 189.586 11.5566 189.141 11.334C188.707 11.1113 188.191 11 187.594 11C187.008 11 186.486 11.1348 186.029 11.4043C185.572 11.6621 185.168 12.0078 184.816 12.4414C184.465 12.8633 184.16 13.3496 183.902 13.9004C183.656 14.4512 183.451 15.0195 183.287 15.6055C183.135 16.1797 183.023 16.748 182.953 17.3105C182.883 17.873 182.848 18.377 182.848 18.8223V29H176.889V8.69727H179.174L181.898 13.4258C182.227 12.6406 182.637 11.9258 183.129 11.2812C183.621 10.6367 184.178 10.0859 184.799 9.62891C185.42 9.17188 186.105 8.82031 186.855 8.57422C187.617 8.32812 188.438 8.20508 189.316 8.20508C190.723 8.20508 191.947 8.43359 192.99 8.89062C194.033 9.34766 194.9 9.98633 195.592 10.8066C196.283 11.6152 196.799 12.582 197.139 13.707C197.479 14.8203 197.648 16.0391 197.648 17.3633ZM206.455 19.3672C207.182 19.5312 207.908 19.6602 208.635 19.7539C209.361 19.8477 210.094 19.8945 210.832 19.8945C211.605 19.8945 212.32 19.8242 212.977 19.6836C213.645 19.5312 214.219 19.2852 214.699 18.9453C215.191 18.5938 215.578 18.1309 215.859 17.5566C216.141 16.9824 216.281 16.2676 216.281 15.4121C216.281 14.7207 216.188 14.0879 216 13.5137C215.812 12.9395 215.531 12.4473 215.156 12.0371C214.793 11.627 214.342 11.3105 213.803 11.0879C213.264 10.8535 212.637 10.7363 211.922 10.7363C211.254 10.7363 210.65 10.8594 210.111 11.1055C209.584 11.3516 209.115 11.6855 208.705 12.1074C208.307 12.5176 207.961 12.998 207.668 13.5488C207.387 14.0996 207.152 14.6738 206.965 15.2715C206.777 15.8691 206.643 16.4727 206.561 17.082C206.479 17.6914 206.438 18.2656 206.438 18.8047C206.438 18.8984 206.438 18.9922 206.438 19.0859C206.438 19.1797 206.443 19.2734 206.455 19.3672ZM221.098 15.3594C221.098 16.1914 220.963 16.9355 220.693 17.5918C220.424 18.2363 220.055 18.8047 219.586 19.2969C219.129 19.7891 218.596 20.2051 217.986 20.5449C217.377 20.8848 216.727 21.166 216.035 21.3887C215.344 21.5996 214.629 21.752 213.891 21.8457C213.164 21.9395 212.455 21.9863 211.764 21.9863C210.885 21.9863 210.018 21.9277 209.162 21.8105C208.307 21.6816 207.463 21.4824 206.631 21.2129C206.76 21.9863 206.965 22.7246 207.246 23.4277C207.527 24.1191 207.902 24.7285 208.371 25.2559C208.84 25.7715 209.414 26.1816 210.094 26.4863C210.785 26.791 211.6 26.9434 212.537 26.9434C213.158 26.9434 213.75 26.8496 214.312 26.6621C214.875 26.4746 215.391 26.2109 215.859 25.8711C216.328 25.5312 216.738 25.127 217.09 24.6582C217.453 24.1895 217.746 23.668 217.969 23.0938L220.535 24.043C220.148 24.9688 219.615 25.7715 218.936 26.4512C218.268 27.1191 217.506 27.6758 216.65 28.1211C215.807 28.5547 214.904 28.877 213.943 29.0879C212.994 29.2988 212.051 29.4043 211.113 29.4043C209.566 29.4043 208.137 29.1465 206.824 28.6309C205.512 28.1035 204.381 27.3711 203.432 26.4336C202.482 25.4961 201.738 24.377 201.199 23.0762C200.66 21.7754 200.391 20.3516 200.391 18.8047C200.391 17.2578 200.66 15.834 201.199 14.5332C201.738 13.2324 202.482 12.1133 203.432 11.1758C204.381 10.2383 205.512 9.51172 206.824 8.99609C208.137 8.46875 209.566 8.20508 211.113 8.20508C211.863 8.20508 212.631 8.25781 213.416 8.36328C214.201 8.46875 214.963 8.63867 215.701 8.87305C216.439 9.0957 217.137 9.38867 217.793 9.75195C218.449 10.1152 219.018 10.5664 219.498 11.1055C219.99 11.6328 220.377 12.248 220.658 12.9512C220.951 13.6543 221.098 14.457 221.098 15.3594ZM242.068 10.4902L238.729 16.0273C238.588 15.5586 238.406 15.0312 238.184 14.4453C237.961 13.8594 237.686 13.3145 237.357 12.8105C237.029 12.2949 236.637 11.8672 236.18 11.5273C235.723 11.1758 235.195 11 234.598 11C234.047 11 233.566 11.1406 233.156 11.4219C232.758 11.7031 232.418 12.0723 232.137 12.5293C231.855 12.9746 231.621 13.4844 231.434 14.0586C231.258 14.6211 231.117 15.1953 231.012 15.7812C230.918 16.3555 230.854 16.9121 230.818 17.4512C230.783 17.9785 230.766 18.4355 230.766 18.8223V29H224.807V8.69727H227.092L229.5 13.4258C229.828 12.6641 230.203 11.9668 230.625 11.334C231.047 10.6895 231.533 10.1387 232.084 9.68164C232.635 9.21289 233.256 8.84961 233.947 8.5918C234.65 8.33398 235.441 8.20508 236.32 8.20508C236.777 8.20508 237.287 8.24609 237.85 8.32812C238.412 8.39844 238.963 8.52734 239.502 8.71484C240.041 8.89062 240.539 9.125 240.996 9.41797C241.453 9.71094 241.811 10.0684 242.068 10.4902Z" fill="white"/>
</svg>
